<svg width="253" height="62" viewBox="0 0 253 62" fill="none" xmlns="http://www.w3.org/2000/svg">
<path d="M28 24.709L26.7593 28.9708L25.9672 28.1805L21.7839 32.1319L18.7806 34.9683L16.3251 37.2874L14.0129 34.9683L12.9229 33.8747L11.5739 32.5208L11.1695 32.1158L8.95471 29.8931L8.10371 30.7154L7.81883 30.9902L6.46975 32.296L5.11698 33.6036L3.72379 34.9505L3.7054 34.9683L1.71118 36.8949L0 38.5504L2.72392 34.9683L6.46975 30.0393L7.81883 28.2661L8.98595 26.7302L11.5739 29.3276L12.6803 30.4389L12.9229 30.6816L16.3747 34.1423L16.6798 33.8534L18.0289 32.5796L18.6281 32.0141L20.3723 30.3658L21.7839 29.0332L24.3718 26.5892L23.5778 25.799L28 24.709Z" fill="#2DFF34"/>
<path d="M6.46975 24.709V30.0393L2.72392 34.9683H2.71289V24.709H6.46975Z" fill="#FFCE5F"/>
<path d="M27.1545 32.0142C27.1545 39.726 20.6921 46 12.7446 46C8.69002 46 4.91844 44.3463 2.25154 41.5991C1.72587 41.0586 1.24431 40.477 0.810547 39.8562L2.46658 38.2561L5.12983 35.6855L5.87054 34.9683L6.46972 34.3904L7.81881 33.0845L8.11656 32.7973L8.82052 32.1159L8.93446 32.0035L8.9363 32.0053L8.99878 31.9446L11.5738 34.5277L12.6931 35.6516L16.3857 39.3568L18.639 37.2268L20.3851 35.5802L21.0321 34.9684L21.7838 34.2584L24.3827 31.8019L16.3378 42.5018L11.1804 37.3303L8.96566 35.1075L8.11652 35.9281L5.12979 38.8162L3.87444 40.0311C6.11864 42.3698 9.31122 43.7791 12.7446 43.7791C19.4294 43.7791 24.8662 38.5023 24.8662 32.0142H27.1545V32.0142Z" fill="#00B7FF"/>
<path d="M11.5739 21.6033V29.3276L8.98597 26.7302L7.81885 28.2662V21.6033H11.5739Z" fill="#FFCE5F"/>
<path d="M16.6798 19.0862V33.8534L16.3747 34.1424L12.923 30.6816V19.0862H16.6798Z" fill="#FFCE5F"/>
<path d="M21.7839 16V29.0333L20.3724 30.3658L18.6281 32.0142L18.0289 32.5797V16H21.7839Z" fill="#FFCE5F"/>
<path d="M47.0728 26.9091C46.9706 26.0455 46.5558 25.375 45.8285 24.8977C45.1013 24.4205 44.2092 24.1818 43.1524 24.1818C42.3797 24.1818 41.7035 24.3068 41.124 24.5568C40.5501 24.8068 40.1012 25.1506 39.7774 25.5881C39.4592 26.0256 39.3001 26.5227 39.3001 27.0795C39.3001 27.5455 39.4109 27.946 39.6325 28.2812C39.8598 28.6108 40.1495 28.8864 40.5018 29.108C40.8541 29.3239 41.2234 29.5028 41.6098 29.6449C41.9961 29.7812 42.3512 29.892 42.6751 29.9773L44.4478 30.4545C44.9024 30.5739 45.4081 30.7386 45.9649 30.9489C46.5274 31.1591 47.0643 31.446 47.5757 31.8097C48.0927 32.1676 48.5189 32.6278 48.8541 33.1903C49.1893 33.7528 49.3569 34.4432 49.3569 35.2614C49.3569 36.2045 49.1098 37.0568 48.6155 37.8182C48.1268 38.5795 47.4109 39.1847 46.4677 39.6335C45.5302 40.0824 44.391 40.3068 43.0501 40.3068C41.8001 40.3068 40.7177 40.1051 39.803 39.7017C38.8939 39.2983 38.178 38.7358 37.6552 38.0142C37.1382 37.2926 36.8456 36.4545 36.7774 35.5H38.9592C39.016 36.1591 39.2376 36.7045 39.624 37.1364C40.016 37.5625 40.5103 37.8807 41.1069 38.0909C41.7092 38.2955 42.3569 38.3977 43.0501 38.3977C43.8569 38.3977 44.5814 38.267 45.2234 38.0057C45.8655 37.7386 46.374 37.3693 46.749 36.8977C47.124 36.4205 47.3115 35.8636 47.3115 35.2273C47.3115 34.6477 47.1495 34.1761 46.8257 33.8125C46.5018 33.4489 46.0757 33.1534 45.5473 32.9261C45.0189 32.6989 44.4478 32.5 43.8342 32.3295L41.6865 31.7159C40.3228 31.3239 39.2433 30.7642 38.4478 30.0369C37.6524 29.3097 37.2547 28.358 37.2547 27.1818C37.2547 26.2045 37.5189 25.3523 38.0473 24.625C38.5814 23.892 39.2973 23.3239 40.195 22.9205C41.0984 22.5114 42.1069 22.3068 43.2206 22.3068C44.3456 22.3068 45.3456 22.5085 46.2206 22.9119C47.0956 23.3097 47.7888 23.8551 48.3001 24.5483C48.8172 25.2415 49.0899 26.0284 49.1183 26.9091H47.0728ZM58.0125 26.9091V28.6136H51.2284V26.9091H58.0125ZM53.2057 23.7727H55.2171V36.25C55.2171 36.8182 55.2995 37.2443 55.4642 37.5284C55.6347 37.8068 55.8506 37.9943 56.112 38.0909C56.379 38.1818 56.6603 38.2273 56.9557 38.2273C57.1773 38.2273 57.3591 38.2159 57.5012 38.1932C57.6432 38.1648 57.7568 38.142 57.8421 38.125L58.2512 39.9318C58.1148 39.983 57.9245 40.0341 57.6801 40.0852C57.4358 40.142 57.1262 40.1705 56.7512 40.1705C56.183 40.1705 55.6262 40.0483 55.0807 39.804C54.5409 39.5597 54.0921 39.1875 53.7341 38.6875C53.3818 38.1875 53.2057 37.5568 53.2057 36.7955V23.7727ZM65.9757 40.2727C64.7938 40.2727 63.7569 39.9915 62.8649 39.429C61.9785 38.8665 61.2853 38.0795 60.7853 37.0682C60.291 36.0568 60.0438 34.875 60.0438 33.5227C60.0438 32.1591 60.291 30.9687 60.7853 29.9517C61.2853 28.9347 61.9785 28.1449 62.8649 27.5824C63.7569 27.0199 64.7938 26.7386 65.9757 26.7386C67.1575 26.7386 68.1916 27.0199 69.0779 27.5824C69.97 28.1449 70.6632 28.9347 71.1575 29.9517C71.6575 30.9687 71.9075 32.1591 71.9075 33.5227C71.9075 34.875 71.6575 36.0568 71.1575 37.0682C70.6632 38.0795 69.97 38.8665 69.0779 39.429C68.1916 39.9915 67.1575 40.2727 65.9757 40.2727ZM65.9757 38.4659C66.8734 38.4659 67.612 38.2358 68.1916 37.7756C68.7711 37.3153 69.2001 36.7102 69.4785 35.9602C69.7569 35.2102 69.8961 34.3977 69.8961 33.5227C69.8961 32.6477 69.7569 31.8324 69.4785 31.0767C69.2001 30.321 68.7711 29.7102 68.1916 29.2443C67.612 28.7784 66.8734 28.5455 65.9757 28.5455C65.0779 28.5455 64.3393 28.7784 63.7597 29.2443C63.1802 29.7102 62.7512 30.321 62.4728 31.0767C62.1944 31.8324 62.0552 32.6477 62.0552 33.5227C62.0552 34.3977 62.1944 35.2102 62.4728 35.9602C62.7512 36.7102 63.1802 37.3153 63.7597 37.7756C64.3393 38.2358 65.0779 38.4659 65.9757 38.4659ZM80.056 40.2727C78.8287 40.2727 77.7719 39.983 76.8855 39.4034C75.9991 38.8239 75.3173 38.0256 74.8401 37.0085C74.3628 35.9915 74.1241 34.8295 74.1241 33.5227C74.1241 32.1932 74.3685 31.0199 74.8571 30.0028C75.3514 28.9801 76.0389 28.1818 76.9196 27.608C77.806 27.0284 78.8401 26.7386 80.0219 26.7386C80.9423 26.7386 81.7719 26.9091 82.5105 27.25C83.2491 27.5909 83.8543 28.0682 84.3259 28.6818C84.7974 29.2955 85.0901 30.0114 85.2037 30.8295H83.1923C83.0389 30.233 82.698 29.7045 82.1696 29.2443C81.6469 28.7784 80.9423 28.5455 80.056 28.5455C79.2719 28.5455 78.5844 28.75 77.9935 29.1591C77.4082 29.5625 76.9509 30.1335 76.6213 30.8722C76.2974 31.6051 76.1355 32.4659 76.1355 33.4545C76.1355 34.4659 76.2946 35.3466 76.6128 36.0966C76.9366 36.8466 77.3912 37.429 77.9764 37.8438C78.5673 38.2585 79.2605 38.4659 80.056 38.4659C80.5787 38.4659 81.0531 38.375 81.4793 38.1932C81.9054 38.0114 82.2662 37.75 82.5616 37.4091C82.8571 37.0682 83.0673 36.6591 83.1923 36.1818H85.2037C85.0901 36.9545 84.8088 37.6506 84.3599 38.2699C83.9168 38.8835 83.3287 39.3722 82.5957 39.7358C81.8685 40.0938 81.0219 40.2727 80.056 40.2727ZM89.779 35.2273L89.7449 32.7386H90.154L95.8813 26.9091H98.3699L92.2677 33.0795H92.0972L89.779 35.2273ZM87.904 40V22.5455H89.9154V40H87.904ZM96.2222 40L91.1086 33.5227L92.5404 32.125L98.779 40H96.2222ZM103.105 22.5455V40H100.991V22.5455H103.105ZM108.842 32.125V40H106.83V26.9091H108.773V28.9545H108.944C109.251 28.2898 109.717 27.7557 110.342 27.3523C110.967 26.9432 111.773 26.7386 112.762 26.7386C113.648 26.7386 114.424 26.9205 115.089 27.2841C115.754 27.642 116.271 28.1875 116.64 28.9205C117.009 29.6477 117.194 30.5682 117.194 31.6818V40H115.183V31.8182C115.183 30.7898 114.916 29.9886 114.381 29.4148C113.847 28.8352 113.114 28.5455 112.183 28.5455C111.541 28.5455 110.967 28.6847 110.461 28.9631C109.961 29.2415 109.566 29.6477 109.276 30.1818C108.987 30.7159 108.842 31.3636 108.842 32.125ZM129.902 29.8409L128.095 30.3523C127.982 30.0511 127.814 29.7585 127.592 29.4744C127.377 29.1847 127.081 28.946 126.706 28.7585C126.331 28.571 125.851 28.4773 125.266 28.4773C124.465 28.4773 123.797 28.6619 123.263 29.0312C122.734 29.3949 122.47 29.858 122.47 30.4205C122.47 30.9205 122.652 31.3153 123.016 31.6051C123.379 31.8949 123.948 32.1364 124.72 32.3295L126.663 32.8068C127.834 33.0909 128.706 33.5256 129.28 34.1108C129.854 34.6903 130.141 35.4375 130.141 36.3523C130.141 37.1023 129.925 37.7727 129.493 38.3636C129.067 38.9545 128.47 39.4205 127.703 39.7614C126.936 40.1023 126.044 40.2727 125.027 40.2727C123.692 40.2727 122.587 39.983 121.712 39.4034C120.837 38.8239 120.283 37.9773 120.05 36.8636L121.959 36.3864C122.141 37.0909 122.484 37.6193 122.99 37.9716C123.502 38.3239 124.169 38.5 124.993 38.5C125.93 38.5 126.675 38.3011 127.226 37.9034C127.783 37.5 128.061 37.017 128.061 36.4545C128.061 36 127.902 35.6193 127.584 35.3125C127.266 35 126.777 34.767 126.118 34.6136L123.936 34.1023C122.737 33.8182 121.857 33.3778 121.294 32.7812C120.737 32.179 120.459 31.4261 120.459 30.5227C120.459 29.7841 120.666 29.1307 121.081 28.5625C121.502 27.9943 122.073 27.5483 122.794 27.2244C123.521 26.9006 124.345 26.7386 125.266 26.7386C126.561 26.7386 127.578 27.0227 128.317 27.5909C129.061 28.1591 129.59 28.9091 129.902 29.8409ZM132.928 40V26.9091H134.94V40H132.928ZM133.951 24.7273C133.559 24.7273 133.221 24.5938 132.937 24.3267C132.659 24.0597 132.519 23.7386 132.519 23.3636C132.519 22.9886 132.659 22.6676 132.937 22.4006C133.221 22.1335 133.559 22 133.951 22C134.343 22 134.678 22.1335 134.957 22.4006C135.241 22.6676 135.383 22.9886 135.383 23.3636C135.383 23.7386 135.241 24.0597 134.957 24.3267C134.678 24.5938 134.343 24.7273 133.951 24.7273ZM143.668 45.1818C142.696 45.1818 141.861 45.0568 141.162 44.8068C140.463 44.5625 139.881 44.2386 139.415 43.8352C138.955 43.4375 138.588 43.0114 138.316 42.5568L139.918 41.4318C140.1 41.6705 140.33 41.9432 140.608 42.25C140.887 42.5625 141.267 42.8324 141.75 43.0597C142.239 43.2926 142.878 43.4091 143.668 43.4091C144.725 43.4091 145.597 43.1534 146.284 42.642C146.972 42.1307 147.316 41.3295 147.316 40.2386V37.5795H147.145C146.997 37.8182 146.787 38.1136 146.514 38.4659C146.247 38.8125 145.861 39.1222 145.355 39.3949C144.855 39.6619 144.179 39.7955 143.327 39.7955C142.27 39.7955 141.321 39.5455 140.48 39.0455C139.645 38.5455 138.983 37.8182 138.495 36.8636C138.012 35.9091 137.77 34.75 137.77 33.3864C137.77 32.0455 138.006 30.8778 138.477 29.8835C138.949 28.8835 139.605 28.1108 140.446 27.5653C141.287 27.0142 142.259 26.7386 143.361 26.7386C144.213 26.7386 144.889 26.8807 145.389 27.1648C145.895 27.4432 146.281 27.7614 146.548 28.1193C146.821 28.4716 147.031 28.7614 147.179 28.9886H147.384V26.9091H149.327V40.375C149.327 41.5 149.071 42.4148 148.56 43.1193C148.054 43.8295 147.372 44.3494 146.514 44.679C145.662 45.0142 144.713 45.1818 143.668 45.1818ZM143.6 37.9886C144.406 37.9886 145.088 37.804 145.645 37.4347C146.202 37.0653 146.625 36.5341 146.915 35.8409C147.205 35.1477 147.35 34.3182 147.35 33.3523C147.35 32.4091 147.208 31.5767 146.923 30.8551C146.639 30.1335 146.219 29.5682 145.662 29.1591C145.105 28.75 144.418 28.5455 143.6 28.5455C142.747 28.5455 142.037 28.7614 141.469 29.1932C140.906 29.625 140.483 30.2045 140.199 30.9318C139.921 31.6591 139.781 32.4659 139.781 33.3523C139.781 34.2614 139.923 35.0653 140.208 35.7642C140.497 36.4574 140.923 37.0028 141.486 37.4006C142.054 37.7926 142.759 37.9886 143.6 37.9886ZM154.78 32.125V40H152.769V22.5455H154.78V28.9545H154.951C155.257 28.2784 155.718 27.7415 156.331 27.3438C156.951 26.9403 157.774 26.7386 158.803 26.7386C159.695 26.7386 160.476 26.9176 161.147 27.2756C161.817 27.6278 162.337 28.1705 162.706 28.9034C163.081 29.6307 163.269 30.5568 163.269 31.6818V40H161.257V31.8182C161.257 30.7784 160.987 29.9744 160.448 29.4062C159.914 28.8324 159.172 28.5455 158.223 28.5455C157.564 28.5455 156.973 28.6847 156.451 28.9631C155.933 29.2415 155.524 29.6477 155.223 30.1818C154.928 30.7159 154.78 31.3636 154.78 32.125ZM172.402 26.9091V28.6136H165.617V26.9091H172.402ZM167.595 23.7727H169.606V36.25C169.606 36.8182 169.689 37.2443 169.853 37.5284C170.024 37.8068 170.24 37.9943 170.501 38.0909C170.768 38.1818 171.049 38.2273 171.345 38.2273C171.566 38.2273 171.748 38.2159 171.89 38.1932C172.032 38.1648 172.146 38.142 172.231 38.125L172.64 39.9318C172.504 39.983 172.314 40.0341 172.069 40.0852C171.825 40.142 171.515 40.1705 171.14 40.1705C170.572 40.1705 170.015 40.0483 169.47 39.804C168.93 39.5597 168.481 39.1875 168.123 38.6875C167.771 38.1875 167.595 37.5568 167.595 36.7955V23.7727Z" fill="white"/>
</svg>
