<svg width="253" height="62" viewBox="0 0 253 62" fill="none" xmlns="http://www.w3.org/2000/svg">
<path d="M28 24.709L26.7593 28.9708L25.9672 28.1805L21.7839 32.1319L18.7806 34.9683L16.3251 37.2874L14.0129 34.9683L12.9229 33.8747L11.5739 32.5208L11.1695 32.1158L8.95471 29.8931L8.10371 30.7154L7.81883 30.9902L6.46975 32.296L5.11698 33.6036L3.72379 34.9505L3.7054 34.9683L1.71118 36.8949L0 38.5504L2.72392 34.9683L6.46975 30.0393L7.81883 28.2661L8.98595 26.7302L11.5739 29.3276L12.6803 30.4389L12.9229 30.6816L16.3747 34.1423L16.6798 33.8534L18.0289 32.5796L18.6281 32.0141L20.3723 30.3658L21.7839 29.0332L24.3718 26.5892L23.5778 25.799L28 24.709Z" fill="#2DFF34"/>
<path d="M6.46975 24.709V30.0393L2.72392 34.9683H2.71289V24.709H6.46975Z" fill="#FFCE5F"/>
<path d="M27.1545 32.0142C27.1545 39.726 20.6921 46 12.7446 46C8.69002 46 4.91844 44.3463 2.25154 41.5991C1.72587 41.0586 1.24431 40.477 0.810547 39.8562L2.46658 38.2561L5.12983 35.6855L5.87054 34.9683L6.46972 34.3904L7.81881 33.0845L8.11656 32.7973L8.82052 32.1159L8.93446 32.0035L8.9363 32.0053L8.99878 31.9446L11.5738 34.5277L12.6931 35.6516L16.3857 39.3568L18.639 37.2268L20.3851 35.5802L21.0321 34.9684L21.7838 34.2584L24.3827 31.8019L16.3378 42.5018L11.1804 37.3303L8.96566 35.1075L8.11652 35.9281L5.12979 38.8162L3.87444 40.0311C6.11864 42.3698 9.31122 43.7791 12.7446 43.7791C19.4294 43.7791 24.8662 38.5023 24.8662 32.0142H27.1545V32.0142Z" fill="#00B7FF"/>
<path d="M11.5739 21.6033V29.3276L8.98597 26.7302L7.81885 28.2662V21.6033H11.5739Z" fill="#FFCE5F"/>
<path d="M16.6798 19.0862V33.8534L16.3747 34.1424L12.923 30.6816V19.0862H16.6798Z" fill="#FFCE5F"/>
<path d="M21.7839 16V29.0333L20.3724 30.3658L18.6281 32.0142L18.0289 32.5797V16H21.7839Z" fill="#FFCE5F"/>
<path d="M41.8458 39.4C42.8058 39.4 43.5978 39.176 44.2218 38.728C44.8618 38.264 45.1818 37.544 45.1818 36.568C45.1818 35.848 44.9658 35.248 44.5338 34.768C44.1178 34.288 43.3658 33.888 42.2778 33.568L40.0458 32.896C38.9258 32.56 38.0618 31.984 37.4538 31.168C36.8618 30.336 36.5658 29.304 36.5658 28.072C36.5658 27.256 36.7498 26.496 37.1178 25.792C37.5018 25.088 38.0778 24.52 38.8458 24.088C39.6298 23.656 40.6138 23.44 41.7978 23.44C43.0938 23.44 44.1418 23.68 44.9418 24.16C45.7418 24.624 46.3018 25.232 46.6218 25.984C46.9418 26.736 47.0218 27.544 46.8618 28.408L44.1018 28.912C44.3578 27.424 44.2458 26.28 43.7658 25.48C43.3018 24.68 42.5418 24.28 41.4858 24.28C40.6698 24.28 40.0138 24.52 39.5178 25C39.0378 25.48 38.7978 26.168 38.7978 27.064C38.7978 27.8 39.0058 28.448 39.4218 29.008C39.8538 29.568 40.5578 30 41.5338 30.304L43.7658 30.976C44.9818 31.328 45.8938 31.864 46.5018 32.584C47.1098 33.288 47.4138 34.272 47.4138 35.536C47.4138 36.432 47.2058 37.24 46.7898 37.96C46.3898 38.664 45.7738 39.224 44.9418 39.64C44.1258 40.04 43.1018 40.24 41.8698 40.24C40.9738 40.24 40.1258 40.112 39.3258 39.856C38.5258 39.584 37.8538 39.144 37.3098 38.536C36.7818 37.928 36.4458 37.104 36.3018 36.064L37.9098 35.488C37.9898 36.512 38.2138 37.312 38.5818 37.888C38.9658 38.448 39.4378 38.84 39.9978 39.064C40.5738 39.288 41.1898 39.4 41.8458 39.4ZM57.5783 37.504C57.3703 38.48 56.9703 39.184 56.3783 39.616C55.8023 40.032 55.0983 40.24 54.2663 40.24C53.4183 40.24 52.7223 40.056 52.1783 39.688C51.6343 39.304 51.2343 38.8 50.9783 38.176C50.7223 37.552 50.5943 36.888 50.5943 36.184V29.848C50.5943 29.304 50.5703 28.984 50.5223 28.888C50.4743 28.776 50.3223 28.704 50.0663 28.672L48.7463 28.504V27.832H50.5943V25.048L53.3543 24.496V27.832H57.1943V28.672H53.3543V36.664C53.3543 37.688 53.4823 38.4 53.7383 38.8C53.9943 39.184 54.3223 39.376 54.7223 39.376C55.1383 39.376 55.4583 39.216 55.6823 38.896C55.9223 38.576 56.0743 37.992 56.1383 37.144L57.5783 37.504ZM69.9511 33.664V34.144C69.9511 35.984 69.4711 37.464 68.5111 38.584C67.5671 39.688 66.2151 40.24 64.4551 40.24C62.6951 40.24 61.3351 39.688 60.3751 38.584C59.4311 37.464 58.9591 35.984 58.9591 34.144V33.664C58.9591 31.824 59.4311 30.352 60.3751 29.248C61.3351 28.144 62.6951 27.592 64.4551 27.592C66.2151 27.592 67.5671 28.144 68.5111 29.248C69.4711 30.352 69.9511 31.824 69.9511 33.664ZM66.9991 33.184C66.9991 31.472 66.7831 30.256 66.3511 29.536C65.9191 28.8 65.2871 28.432 64.4551 28.432C63.6391 28.432 63.0071 28.8 62.5591 29.536C62.1271 30.256 61.9111 31.472 61.9111 33.184V34.624C61.9111 36.32 62.1271 37.544 62.5591 38.296C63.0071 39.032 63.6391 39.4 64.4551 39.4C65.2871 39.4 65.9191 39.032 66.3511 38.296C66.7831 37.544 66.9991 36.32 66.9991 34.624V33.184ZM77.4517 28.432C76.6837 28.432 76.1077 28.8 75.7237 29.536C75.3557 30.256 75.1717 31.472 75.1717 33.184V34.624C75.1717 36.32 75.3877 37.544 75.8197 38.296C76.2517 39.032 76.9557 39.4 77.9317 39.4C78.6517 39.4 79.2357 39.2 79.6837 38.8C80.1477 38.384 80.4117 37.688 80.4757 36.712L82.0117 37.144C81.7237 38.264 81.1957 39.064 80.4277 39.544C79.6757 40.008 78.7877 40.24 77.7637 40.24C75.9237 40.24 74.5397 39.688 73.6117 38.584C72.6837 37.464 72.2197 35.984 72.2197 34.144V33.664C72.2197 31.824 72.6677 30.352 73.5637 29.248C74.4597 28.144 75.7557 27.592 77.4517 27.592C78.5717 27.592 79.4837 27.816 80.1877 28.264C80.9077 28.696 81.4117 29.272 81.6997 29.992C82.0037 30.696 82.0837 31.456 81.9397 32.272L79.2997 32.656C79.4757 31.312 79.4037 30.272 79.0837 29.536C78.7637 28.8 78.2197 28.432 77.4517 28.432ZM83.162 22.912V22.24H87.77V33.88L91.994 29.848C92.554 29.32 92.85 29 92.882 28.888C92.93 28.776 92.818 28.704 92.546 28.672L91.226 28.504V27.832H96.146V28.504L94.826 28.672C94.682 28.688 94.562 28.72 94.466 28.768C94.37 28.816 94.234 28.92 94.058 29.08C93.882 29.224 93.602 29.48 93.218 29.848L90.914 32.056L94.322 37.984C94.546 38.352 94.714 38.616 94.826 38.776C94.938 38.92 95.042 39.016 95.138 39.064C95.25 39.096 95.386 39.128 95.546 39.16L96.866 39.328V40H92.282L88.946 33.928L87.77 35.056V37.984C87.77 38.528 87.794 38.856 87.842 38.968C87.89 39.064 88.042 39.128 88.298 39.16L89.618 39.328V40H83.162V39.328L84.482 39.16C84.738 39.128 84.89 39.064 84.938 38.968C84.986 38.856 85.01 38.528 85.01 37.984V24.256C85.01 23.712 84.986 23.392 84.938 23.296C84.89 23.184 84.738 23.112 84.482 23.08L83.162 22.912ZM97.6793 24.352V23.68H104.255V24.352L102.935 24.52C102.679 24.552 102.527 24.624 102.479 24.736C102.431 24.832 102.407 25.152 102.407 25.696V37.984C102.407 38.528 102.431 38.856 102.479 38.968C102.527 39.064 102.679 39.128 102.935 39.16L104.255 39.328V40H97.6793V39.328L98.9993 39.16C99.2553 39.128 99.4073 39.064 99.4553 38.968C99.5033 38.856 99.5273 38.528 99.5273 37.984V25.696C99.5273 25.152 99.5033 24.832 99.4553 24.736C99.4073 24.624 99.2553 24.552 98.9993 24.52L97.6793 24.352ZM119.744 39.328V40H113.288V39.328L114.608 39.16C114.864 39.128 115.016 39.064 115.064 38.968C115.112 38.856 115.136 38.528 115.136 37.984V31.936C115.136 30.832 114.968 30.032 114.632 29.536C114.312 29.024 113.832 28.768 113.192 28.768C112.92 28.768 112.6 28.84 112.232 28.984C111.88 29.112 111.52 29.352 111.152 29.704C110.8 30.056 110.488 30.576 110.216 31.264V37.984C110.216 38.528 110.24 38.856 110.288 38.968C110.336 39.064 110.488 39.128 110.744 39.16L112.064 39.328V40H105.608V39.328L106.928 39.16C107.184 39.128 107.336 39.064 107.384 38.968C107.432 38.856 107.456 38.528 107.456 37.984V29.848C107.456 29.304 107.432 28.984 107.384 28.888C107.336 28.776 107.184 28.704 106.928 28.672L105.608 28.504V27.832H110.072V29.944C110.536 29.128 111.128 28.536 111.848 28.168C112.584 27.784 113.32 27.592 114.056 27.592C115.24 27.592 116.176 27.968 116.864 28.72C117.552 29.472 117.896 30.536 117.896 31.912V37.984C117.896 38.528 117.92 38.856 117.968 38.968C118.016 39.064 118.168 39.128 118.424 39.16L119.744 39.328ZM125.793 35.464L124.137 35.08C123.065 34.824 122.265 34.368 121.737 33.712C121.225 33.04 120.969 32.248 120.969 31.336C120.969 30.664 121.113 30.048 121.401 29.488C121.705 28.912 122.177 28.456 122.817 28.12C123.457 27.768 124.289 27.592 125.313 27.592C126.417 27.592 127.313 27.768 128.001 28.12C128.689 28.472 129.177 28.936 129.465 29.512C129.753 30.088 129.841 30.704 129.729 31.36L127.089 31.84C127.313 30.752 127.249 29.912 126.897 29.32C126.561 28.728 125.993 28.432 125.193 28.432C124.633 28.432 124.169 28.6 123.801 28.936C123.433 29.256 123.249 29.72 123.249 30.328C123.249 30.888 123.409 31.384 123.729 31.816C124.049 32.232 124.521 32.512 125.145 32.656L126.801 33.04C127.985 33.312 128.841 33.744 129.369 34.336C129.897 34.912 130.161 35.632 130.161 36.496C130.161 37.568 129.761 38.464 128.961 39.184C128.177 39.888 127.001 40.24 125.433 40.24C124.889 40.24 124.289 40.16 123.633 40C122.993 39.824 122.401 39.512 121.857 39.064C121.329 38.616 120.945 37.976 120.705 37.144L122.265 36.52C122.377 37.576 122.737 38.32 123.345 38.752C123.969 39.184 124.665 39.4 125.433 39.4C126.153 39.4 126.737 39.24 127.185 38.92C127.649 38.584 127.881 38.104 127.881 37.48C127.881 37.048 127.729 36.656 127.425 36.304C127.137 35.936 126.593 35.656 125.793 35.464ZM134.828 25.768C134.332 25.768 133.932 25.616 133.628 25.312C133.324 24.992 133.172 24.584 133.172 24.088C133.172 23.592 133.324 23.192 133.628 22.888C133.932 22.584 134.332 22.432 134.828 22.432C135.308 22.432 135.708 22.584 136.028 22.888C136.348 23.192 136.508 23.592 136.508 24.088C136.508 24.584 136.348 24.992 136.028 25.312C135.708 25.616 135.308 25.768 134.828 25.768ZM131.612 28.504V27.832H136.22V37.984C136.22 38.528 136.244 38.856 136.292 38.968C136.34 39.064 136.492 39.128 136.748 39.16L138.068 39.328V40H131.612V39.328L132.932 39.16C133.188 39.128 133.34 39.064 133.388 38.968C133.436 38.856 133.46 38.528 133.46 37.984V29.848C133.46 29.304 133.436 28.984 133.388 28.888C133.34 28.776 133.188 28.704 132.932 28.672L131.612 28.504ZM150.467 41.248C150.467 42.56 149.971 43.568 148.979 44.272C148.003 44.992 146.659 45.352 144.947 45.352C143.059 45.352 141.651 45.04 140.723 44.416C139.795 43.808 139.291 43.048 139.211 42.136L141.779 41.728C141.715 42.576 141.915 43.248 142.379 43.744C142.859 44.256 143.715 44.512 144.947 44.512C146.099 44.512 147.027 44.296 147.731 43.864C148.451 43.432 148.811 42.808 148.811 41.992C148.811 41.416 148.595 40.976 148.163 40.672C147.747 40.384 147.051 40.24 146.075 40.24H143.339C142.491 40.24 141.819 40.12 141.323 39.88C140.843 39.64 140.507 39.344 140.315 38.992C140.123 38.624 140.027 38.248 140.027 37.864C140.027 37.4 140.155 36.944 140.411 36.496C140.667 36.032 141.107 35.576 141.731 35.128C141.043 34.824 140.483 34.376 140.051 33.784C139.619 33.192 139.403 32.456 139.403 31.576C139.403 30.68 139.611 29.944 140.027 29.368C140.443 28.776 141.003 28.336 141.707 28.048C142.411 27.744 143.195 27.592 144.059 27.592H144.467C145.395 27.592 146.195 27.744 146.867 28.048L150.323 26.344L150.611 28.696H147.875C148.259 29.032 148.555 29.44 148.763 29.92C148.987 30.384 149.099 30.936 149.099 31.576C149.099 32.44 148.891 33.168 148.475 33.76C148.059 34.352 147.499 34.8 146.795 35.104C146.107 35.408 145.331 35.56 144.467 35.56H144.059C143.579 35.56 143.107 35.512 142.643 35.416C142.243 35.688 141.963 35.952 141.803 36.208C141.659 36.448 141.587 36.68 141.587 36.904C141.587 37.16 141.699 37.352 141.923 37.48C142.163 37.608 142.547 37.672 143.075 37.672H146.195C147.571 37.672 148.627 37.984 149.363 38.608C150.099 39.216 150.467 40.096 150.467 41.248ZM144.467 34.72C144.979 34.72 145.419 34.496 145.787 34.048C146.155 33.6 146.339 32.776 146.339 31.576C146.339 30.376 146.155 29.552 145.787 29.104C145.419 28.656 144.979 28.432 144.467 28.432H144.059C143.547 28.432 143.099 28.656 142.715 29.104C142.347 29.552 142.163 30.376 142.163 31.576C142.163 32.776 142.347 33.6 142.715 34.048C143.099 34.496 143.547 34.72 144.059 34.72H144.467ZM165.256 39.328V40H158.8V39.328L160.12 39.16C160.376 39.128 160.528 39.064 160.576 38.968C160.624 38.856 160.648 38.528 160.648 37.984V31.936C160.648 30.832 160.48 30.032 160.144 29.536C159.824 29.024 159.344 28.768 158.704 28.768C158.432 28.768 158.112 28.84 157.744 28.984C157.392 29.112 157.032 29.352 156.664 29.704C156.312 30.056 156 30.576 155.728 31.264V37.984C155.728 38.528 155.752 38.856 155.8 38.968C155.848 39.064 156 39.128 156.256 39.16L157.576 39.328V40H151.12V39.328L152.44 39.16C152.696 39.128 152.848 39.064 152.896 38.968C152.944 38.856 152.968 38.528 152.968 37.984V24.256C152.968 23.712 152.944 23.392 152.896 23.296C152.848 23.184 152.696 23.112 152.44 23.08L151.12 22.912V22.24H155.728V29.704C156.192 28.968 156.768 28.432 157.456 28.096C158.16 27.76 158.864 27.592 159.568 27.592C160.752 27.592 161.688 27.968 162.376 28.72C163.064 29.472 163.408 30.536 163.408 31.912V37.984C163.408 38.528 163.432 38.856 163.48 38.968C163.528 39.064 163.68 39.128 163.936 39.16L165.256 39.328ZM174.381 37.504C174.173 38.48 173.773 39.184 173.181 39.616C172.605 40.032 171.901 40.24 171.069 40.24C170.221 40.24 169.525 40.056 168.981 39.688C168.437 39.304 168.037 38.8 167.781 38.176C167.525 37.552 167.397 36.888 167.397 36.184V29.848C167.397 29.304 167.373 28.984 167.325 28.888C167.277 28.776 167.125 28.704 166.869 28.672L165.549 28.504V27.832H167.397V25.048L170.157 24.496V27.832H173.997V28.672H170.157V36.664C170.157 37.688 170.285 38.4 170.541 38.8C170.797 39.184 171.125 39.376 171.525 39.376C171.941 39.376 172.261 39.216 172.485 38.896C172.725 38.576 172.877 37.992 172.941 37.144L174.381 37.504Z" fill="white"/>
</svg>
